<?xml version="1.0" standalone="no"?>
<!DOCTYPE svg PUBLIC "-//W3C//DTD SVG 20010904//EN"
 "http://www.w3.org/TR/2001/REC-SVG-20010904/DTD/svg10.dtd">
<svg version="1.0" xmlns="http://www.w3.org/2000/svg"
 width="512.000000pt" height="512.000000pt" viewBox="0 0 512.000000 512.000000"
 preserveAspectRatio="xMidYMid meet">
<metadata>
Created by potrace 1.11, written by Peter Selinger 2001-2013
</metadata>
<g transform="translate(0.000000,512.000000) scale(0.100000,-0.100000)"
fill="#000000" stroke="none">
<path d="M230 5062 c-142 -18 -211 -101 -211 -252 1 -83 5 -116 26 -210 11
-47 37 -129 55 -175 4 -11 13 -36 20 -55 39 -111 165 -376 252 -527 l25 -43
49 76 c27 42 54 83 59 92 16 26 111 150 152 200 61 74 222 234 298 298 39 32
75 62 80 67 26 22 182 131 203 140 29 13 28 22 -5 40 -54 28 -338 172 -345
175 -10 4 -75 31 -113 47 -74 31 -95 39 -180 66 -133 43 -294 70 -365 61z"/>
<path d="M4755 5023 c-38 -8 -80 -16 -93 -19 -30 -6 -223 -76 -292 -105 -84
-36 -415 -205 -457 -234 -21 -14 -43 -25 -50 -25 -7 0 -13 -3 -13 -8 0 -4 -17
-16 -37 -27 -42 -22 -175 -105 -183 -114 -3 -3 -31 -24 -63 -45 -74 -50 -122
-98 -135 -134 -15 -45 -7 -170 16 -235 26 -71 106 -220 137 -253 5 -6 21 -26
35 -45 25 -34 188 -199 227 -230 120 -95 289 -182 383 -197 121 -19 189 3 250
82 22 28 43 56 48 61 4 6 22 33 39 60 18 28 36 55 41 60 10 12 88 139 118 193
12 20 31 55 44 77 35 60 163 313 187 370 53 122 65 152 89 224 14 42 27 83 29
91 2 8 8 33 13 55 27 99 31 208 11 274 -15 51 -66 105 -113 121 -52 17 -153
18 -231 3z"/>
<path d="M2459 4946 c-2 -2 -41 -7 -86 -10 -46 -4 -93 -9 -105 -12 -13 -3 -38
-7 -57 -10 -19 -2 -55 -9 -80 -15 -25 -6 -57 -13 -71 -15 -14 -3 -65 -16 -115
-31 -272 -78 -555 -220 -788 -394 -109 -82 -122 -94 -263 -234 -225 -224 -380
-450 -511 -745 -78 -176 -159 -455 -178 -611 -2 -24 -7 -60 -10 -79 -22 -149
-22 -429 0 -590 19 -137 30 -194 55 -292 17 -62 31 -117 33 -123 2 -5 11 -32
20 -60 43 -133 44 -135 121 -295 58 -118 94 -185 127 -232 11 -14 19 -29 19
-33 0 -3 13 -23 28 -43 16 -20 48 -64 73 -97 133 -179 271 -317 500 -499 41
-33 223 -148 299 -189 214 -115 520 -222 724 -252 21 -3 48 -8 60 -11 123 -30
531 -36 676 -9 14 2 45 7 70 9 131 15 418 94 565 156 37 16 270 131 290 143
181 113 186 117 279 190 230 181 395 362 561 616 84 127 221 404 230 461 0 3
6 14 11 25 6 11 15 34 19 50 12 45 12 45 15 48 1 1 3 9 5 17 2 8 13 49 24 90
20 71 45 194 57 270 2 19 7 49 9 65 19 121 19 429 1 570 -3 22 -8 60 -11 85
-15 125 -90 411 -134 515 -5 11 -16 38 -26 60 -43 104 -121 255 -130 252 -8
-3 -39 -51 -61 -97 -5 -8 -20 -35 -36 -59 -15 -24 -25 -47 -23 -51 9 -14 17
-86 17 -146 0 -252 -295 -262 -652 -22 -52 35 -100 68 -109 73 -67 45 -289
257 -360 345 -20 25 -38 47 -41 50 -11 11 -69 98 -94 140 -130 222 -177 395
-139 505 30 86 82 117 198 120 78 2 82 4 175 59 52 31 98 56 102 56 4 0 8 5 8
10 0 9 -85 53 -175 90 -11 5 -40 17 -65 27 -25 11 -79 30 -120 42 -41 13 -82
25 -90 29 -18 6 -27 8 -60 15 -14 3 -54 12 -90 21 -67 15 -106 22 -175 32 -22
3 -53 7 -70 10 -36 6 -440 15 -446 10z"/>
</g>
</svg>
